<svg width="76" height="31" viewBox="0 0 76 31" fill="none" xmlns="http://www.w3.org/2000/svg">
<path fill-rule="evenodd" clip-rule="evenodd" d="M75.8822 21.0476C72.7063 26.4321 67.6766 24.8697 66.166 23.6464C65.5231 24.0826 64.3958 25.0387 62.8926 24.9283C59.6913 24.6933 58.5449 20.1185 58.5449 20.1185C58.5679 20.1368 57.5913 20.4555 57.0635 20.4498C57.0567 21.7914 55.897 24.9962 52.7672 24.9552C49.2551 24.9094 48.5411 19.677 48.5411 19.677C48.5411 19.677 48.1916 20.1623 46.8627 20.6457C46.9296 19.615 46.8807 24.7983 42.6713 24.8745C39.3435 24.9348 38.4452 19.5963 38.4452 19.5963C38.4452 19.5963 37.8679 20.196 36.7491 20.404C36.8202 19.3565 36.7046 24.8921 32.4947 24.8745C29.6497 24.8627 28.6775 21.586 28.7531 21.1312C28.8496 20.5516 27.7916 24.956 25.0281 24.8874C23.8877 24.8539 23.0375 24.0282 22.504 22.9274C21.7898 23.7446 20.7529 24.8874 19.5897 24.8874C17.5017 24.8874 16.5812 23.141 16.7371 18.153C16.7504 17.5614 16.7077 17.3287 16.1196 17.2402C15.7666 17.1813 15.4051 17.0698 15.0226 17.011C14.9 17.4201 13.8602 24.7543 10.2847 24.8935C9.08519 24.9402 8.4293 23.9011 7.89066 23.1299C7.06497 24.2222 5.97501 24.9283 4.42227 24.9283C1.79205 24.9283 0 22.802 0 20.1791C0 17.5561 1.79205 15.43 4.42227 15.43C4.88732 15.43 5.01787 15.4967 5.44272 15.6207C4.569 7.66566 6.63238 6.42241 8.43739 6.42241C10.1703 6.42241 13.1308 10.4445 8.96512 20.6465C9.88998 23.6895 11.8838 23.5174 12.8419 17.2532C13.0369 15.9799 12.5155 14.2616 13.3265 14.0218C14.809 13.5835 14.9663 14.8985 15.6614 15.1176C16.3964 15.3492 16.8254 15.3265 17.531 15.4739C18.7367 15.7094 19.2072 16.3571 19.0603 17.7996C18.8839 19.6249 18.5753 22.2816 19.5162 22.6054C20.1947 22.8406 21.4335 21.4335 21.6509 20.6636C21.8682 19.8937 21.9136 19.6302 21.9329 19.0655C21.9623 17.8586 21.9992 16.9739 22.205 16.0612C22.2931 15.708 22.3935 15.4741 22.7931 15.4581C23.1219 15.4497 23.7232 15.3507 23.9879 15.5567C24.3407 15.8218 24.2966 16.0908 24.2561 16.7987C23.8458 26.8921 27.0038 21.8534 27.9454 17.8189C27.6101 13.2569 27.8403 6.50595 30.6991 6.39273C32.1859 6.33384 32.8432 7.52494 32.9155 8.41398C33.12 10.925 31.9745 15.0843 30.468 17.8815C29.607 23.589 34.2325 24.7175 34.9722 20.1618C33.762 19.5864 32.4541 17.2574 33.5184 16.1224C34.1156 15.4855 36.6015 16.4005 36.6422 18.3963C37.8616 18.0702 38.0244 17.3817 38.0413 17.4958C37.7061 12.9337 38.017 6.50601 40.876 6.39278C42.3626 6.3339 43.0198 7.525 43.0921 8.41404C43.2966 10.925 42.1511 15.0844 40.6448 17.8816C39.7837 23.589 44.4093 24.7176 45.1488 20.1619C44.2528 19.989 42.3614 17.5118 43.4527 16.1225C44.0359 15.3801 46.5127 16.924 46.79 18.4624C47.9614 18.1309 48.1205 17.4643 48.1373 17.5765C47.802 13.0146 48.1129 6.58686 50.9719 6.47363C52.4585 6.41475 53.1157 7.60584 53.188 8.49488C53.3925 11.0059 52.247 15.1653 50.7405 17.9625C49.8796 23.67 54.5051 24.7983 55.2448 20.2426C54.0135 20.0376 52.2636 17.422 53.672 16.084C54.2347 15.5493 56.3848 16.9371 56.8881 18.5204C57.5874 18.4935 58.0227 18.2523 58.116 18.228C56.9996 12.8724 57.8307 6.4465 60.9062 6.39286C62.5685 6.3639 64.1936 7.29153 63.4803 12.3867C62.7994 17.248 60.3519 19.2881 60.3576 19.3193C60.5 19.9017 61.7559 24.7757 64.9185 22.204C64.7548 21.8333 64.5909 21.4546 64.4993 20.9958C63.9751 18.3233 65.0047 15.3047 67.8032 14.8168C69.4066 14.5373 70.917 15.318 71.1558 17.0778C71.5487 19.9575 68.9484 22.043 67.9596 22.4954C67.5167 22.2438 71.9742 25.1026 74.6196 19.3735C74.773 19.0464 74.9579 19.0741 75.1975 19.2427C75.3667 19.3618 76.3305 20.2748 75.8822 21.0476ZM6.33552 19.4715C6.20092 19.0691 5.92469 18.1824 5.82701 17.7982C5.28905 17.3304 4.90507 17.2544 4.21455 17.2544C2.68 17.2544 1.77679 18.6732 1.77679 20.2031C1.77679 21.7329 2.76077 23.1519 4.29533 23.1519C5.6252 23.1519 6.63735 22.2477 6.94615 20.9677C6.73001 20.4687 6.5156 20.0101 6.33552 19.4715ZM8.39979 8.52816C7.32153 8.52816 6.95576 11.1004 7.02674 13.2947C7.08953 15.2347 7.63164 16.9427 7.91286 17.708C7.98426 17.8039 7.971 17.7415 8.03474 17.8432C9.90694 13.7412 9.13041 8.52816 8.39979 8.52816ZM30.8531 8.60895C29.4595 8.44912 29.4685 14.2545 29.6415 15.5567C30.3653 14.3989 31.6226 8.92071 30.8531 8.60895ZM41.0297 8.60895C39.6361 8.44912 39.6451 14.2545 39.8182 15.5567C40.5419 14.3989 41.7993 8.92071 41.0297 8.60895ZM51.1257 8.68972C49.732 8.52989 49.741 14.3353 49.9141 15.6376C50.6378 14.4796 51.8952 9.00146 51.1257 8.68972ZM61.06 8.26911C58.8887 8.70513 59.3943 15.9446 59.7241 17.2143C62.2817 13.7015 62.3344 8.13716 61.06 8.26911ZM69.1975 17.316C69.0871 16.8544 68.5351 16.6077 68.1541 16.6685C67.0639 16.8174 66.0065 18.1752 66.4158 20.2424C66.5069 20.7028 66.7349 21.1266 66.7312 21.1125C69.1711 19.4756 69.3785 18.1857 69.1975 17.316ZM23.2205 13.8602C22.9089 13.8603 22.6043 13.7679 22.3452 13.5948C22.0861 13.4218 21.8841 13.1757 21.7648 12.8879C21.6455 12.6 21.6143 12.2832 21.6751 11.9776C21.7358 11.672 21.8859 11.3913 22.1062 11.1709C22.3265 10.9506 22.6072 10.8005 22.9128 10.7397C23.2184 10.6789 23.5352 10.7101 23.8231 10.8294C24.111 10.9486 24.357 11.1505 24.5301 11.4096C24.7032 11.6687 24.7956 11.9733 24.7956 12.2849C24.7956 12.4918 24.7549 12.6966 24.6757 12.8877C24.5966 13.0788 24.4806 13.2525 24.3343 13.3988C24.188 13.5451 24.0144 13.6611 23.8233 13.7403C23.6322 13.8194 23.4274 13.8602 23.2205 13.8602Z" fill="#0D0C22"/>
</svg>
